<svg xmlns="http://www.w3.org/2000/svg" width="24" height="24" viewBox="0 0 320 320">
  <path fill="#18853e" d="M221.5 162.5a112.97 112.97 0 0 1 15 .5 145.698 145.698 0 0 1 20 11c6.142 2.218 12.142 1.884 18-1 15.156-8.284 17.99-4.784 8.5 10.5a593.455 593.455 0 0 0-12.5 19.5 17.899 17.899 0 0 1-7.5 1.5 783.45 783.45 0 0 0-28.5-1.5 302.758 302.758 0 0 1-17.5-32.5c-1.652-4.719-.152-7.385 4.5-8Z"/>
  <path fill="#0d823a" d="M205.5 243.5c1.406-.473 2.073-1.473 2-3a157.887 157.887 0 0 1 17-26.5 22.981 22.981 0 0 1 5-2 780.055 780.055 0 0 1 43 1 22.573 22.573 0 0 1 8 4 310.306 310.306 0 0 1 35.5 56.5c8.268 20.013 4.101 36.847-12.5 50.5a47.356 47.356 0 0 1-12 5c-22.895 5.827-45.895 6.494-69 2-10.115-2.725-19.449-7.059-28-13-7.313-6.251-10.98-14.251-11-24 1.263-19.672 8.596-36.506 22-50.5Z"/>
  <path fill="#f8db58" d="M248.5 238.5h7c-.285 1.788.048 3.455 1 5 8.528 2.52 12.861 8.187 13 17h-10c.216-2.181-.617-3.847-2.5-5a112.97 112.97 0 0 0-.5 15c8.137 2.147 12.137 7.481 12 16-.111 8.616-4.278 14.282-12.5 17a12.93 12.93 0 0 0-.5 5h-7c.285-1.788-.048-3.455-1-5-7.959-2.947-11.959-8.614-12-17a76.926 76.926 0 0 0 10-1c-.372 2.522.461 4.522 2.5 6 .499-4.989.666-9.989.5-15-7.938-2.282-12.271-7.616-13-16 .699-8.359 5.032-13.693 13-16v-6Z"/>
  <path fill="#86c19c" d="M207.5 240.5c.073 1.527-.594 2.527-2 3-.073-1.527.594-2.527 2-3Z" opacity=".624"/>
  <path fill="#1a8538" d="M247.5 254.5c1.148 4.481 1.315 9.148.5 14-4.483-4.523-4.649-9.189-.5-14Z"/>
  <path fill="#8db449" d="M257.5 279.5c-1.333 4-1.333 8 0 12-.06.543-.393.876-1 1-1.333-4.667-1.333-9.333 0-14 .607.124.94.457 1 1Z"/>
  <path fill="#138338" d="M257.5 279.5c2.033 1.398 3.033 3.398 3 6 .033 2.602-.967 4.602-3 6-1.333-4-1.333-8 0-12Z"/>
</svg>